<svg xmlns="http://www.w3.org/2000/svg" xmlns:xlink="http://www.w3.org/1999/xlink" width="512" height="512" viewBox="0 0 512 512" fill="none"><path   fill="currentColor"  d="M382.714 129.286C422.703 169.276 422.703 234.112 382.714 274.102L328.408 328.408C288.418 368.397 223.582 368.397 183.592 328.408C143.603 288.418 143.603 223.582 183.592 183.592L237.898 129.286C277.888 89.2968 342.724 89.2968 382.714 129.286ZM346.51 165.49C326.515 145.495 294.097 145.495 274.102 165.49L219.796 219.796C199.801 239.791 199.801 272.209 219.796 292.204C239.791 312.199 272.209 312.199 292.204 292.204L346.51 237.898C366.504 217.903 366.504 185.485 346.51 165.49Z"></path><path    stroke="currentColor" stroke-width="51.2" stroke-linejoin="round" stroke-linecap="round"  d="M147.388 147.388C145.611 149.166 143.878 150.986 142.19 152.849C140.502 154.711 138.86 156.614 137.266 158.557C135.671 160.5 134.125 162.481 132.627 164.5C131.13 166.52 129.683 168.575 128.286 170.664C126.89 172.754 125.545 174.878 124.253 177.034C122.96 179.19 121.722 181.376 120.537 183.594C119.352 185.811 118.222 188.055 117.148 190.327C116.073 192.6 115.054 194.897 114.092 197.22C113.13 199.542 112.226 201.887 111.379 204.253C110.532 206.62 109.744 209.006 109.014 211.412C108.284 213.818 107.614 216.24 107.003 218.678C106.392 221.116 105.842 223.568 105.351 226.034C104.861 228.5 104.431 230.975 104.063 233.462C103.694 235.949 103.386 238.443 103.14 240.945C102.893 243.447 102.708 245.953 102.585 248.463C102.462 250.974 102.4 253.486 102.399 256C102.4 258.514 102.462 261.026 102.585 263.537C102.708 266.047 102.893 268.553 103.14 271.055C103.386 273.557 103.694 276.051 104.063 278.538C104.431 281.024 104.861 283.5 105.351 285.966C105.841 288.432 106.392 290.884 107.003 293.322C107.614 295.761 108.284 298.182 109.014 300.587C109.744 302.993 110.532 305.38 111.379 307.747C112.225 310.113 113.13 312.458 114.092 314.78C115.054 317.103 116.073 319.4 117.148 321.673C118.222 323.945 119.352 326.19 120.537 328.406C121.722 330.624 122.961 332.81 124.253 334.966C125.545 337.123 126.89 339.246 128.286 341.336C129.682 343.425 131.129 345.48 132.627 347.5C134.124 349.519 135.671 351.5 137.266 353.443C138.86 355.386 140.501 357.289 142.19 359.151C143.878 361.014 145.611 362.834 147.388 364.612C149.166 366.389 150.986 368.122 152.849 369.81C154.711 371.499 156.614 373.14 158.557 374.734C160.5 376.329 162.481 377.875 164.5 379.373C166.52 380.871 168.575 382.318 170.664 383.714C172.754 385.11 174.877 386.455 177.034 387.747C179.19 389.039 181.376 390.278 183.594 391.463C185.81 392.648 188.055 393.778 190.327 394.852C192.6 395.927 194.897 396.946 197.22 397.908C199.542 398.87 201.887 399.775 204.253 400.621C206.621 401.468 209.007 402.257 211.413 402.986C213.818 403.716 216.239 404.386 218.678 404.997C221.116 405.608 223.568 406.158 226.034 406.649C228.5 407.139 230.975 407.568 233.462 407.937C235.949 408.306 238.443 408.614 240.945 408.86C243.447 409.106 245.953 409.292 248.463 409.415C250.974 409.538 253.486 409.6 256 409.601C258.514 409.6 261.026 409.538 263.537 409.415C266.047 409.292 268.553 409.106 271.055 408.86C273.557 408.614 276.051 408.306 278.538 407.937C281.024 407.569 283.5 407.139 285.966 406.649C288.432 406.159 290.884 405.608 293.322 404.997C295.761 404.386 298.182 403.716 300.588 402.986C302.993 402.256 305.38 401.468 307.747 400.621C310.113 399.775 312.458 398.87 314.78 397.908C317.103 396.946 319.4 395.927 321.673 394.852C323.945 393.778 326.189 392.648 328.406 391.463C330.624 390.278 332.81 389.039 334.966 387.747C337.123 386.455 339.245 385.11 341.336 383.714C343.425 382.317 345.48 380.871 347.5 379.373C349.519 377.876 351.5 376.329 353.443 374.734C355.386 373.14 357.289 371.499 359.151 369.81C361.014 368.122 362.834 366.389 364.612 364.612"></path></svg>